PathFileType	4	(X/Y/Z)	E:\Studenten\Marcel_BSc\Simon_27_12_2024\27-12-2024\static_00.trc
DataRate	CameraRate	NumFrames	NumMarkers	Units	OrigDataRate	OrigDataStartFrame	OrigNumFrames
200.0	200.0	4	63	mm	200.0	186	175	
Frame#	Time	FHD			LBHD			RBHD			RBAR			LBAR			RASI			RSACR			LSACR			LASI			USACR			C7			CLAV			T10			RSHO			LSHO			LTHI1			LTHI3			LTHI2			LTHI4			LLFC			LMFC			LTIB1			LTIB2			LTIB3			LTIB4			LMMAL			LLMAL			LHEE			LMT1			LMT5			LMT3			RTHI1			RTHI3			RTHI2			RTHI4			RLFC			RMFC			RTIB1			RTIB3			RTIB2			RTIB4			RLMAL			RMMAL			RHEE			RMT5			RMT1			RMT3			LMEP			LLEP			LDUPA			LMUPA			LUUPA			LUL			LRAD			LRFIN			RUL			RRAD			RUFIN			RMEP			RDUPA			RUUPA			RLEP			RMUPA			
		X1	Y1	Z1	X2	Y2	Z2	X3	Y3	Z3	X4	Y4	Z4	X5	Y5	Z5	X6	Y6	Z6	X7	Y7	Z7	X8	Y8	Z8	X9	Y9	Z9	X10	Y10	Z10	X11	Y11	Z11	X12	Y12	Z12	X13	Y13	Z13	X14	Y14	Z14	X15	Y15	Z15	X16	Y16	Z16	X17	Y17	Z17	X18	Y18	Z18	X19	Y19	Z19	X20	Y20	Z20	X21	Y21	Z21	X22	Y22	Z22	X23	Y23	Z23	X24	Y24	Z24	X25	Y25	Z25	X26	Y26	Z26	X27	Y27	Z27	X28	Y28	Z28	X29	Y29	Z29	X30	Y30	Z30	X31	Y31	Z31	X32	Y32	Z32	X33	Y33	Z33	X34	Y34	Z34	X35	Y35	Z35	X36	Y36	Z36	X37	Y37	Z37	X38	Y38	Z38	X39	Y39	Z39	X40	Y40	Z40	X41	Y41	Z41	X42	Y42	Z42	X43	Y43	Z43	X44	Y44	Z44	X45	Y45	Z45	X46	Y46	Z46	X47	Y47	Z47	X48	Y48	Z48	X49	Y49	Z49	X50	Y50	Z50	X51	Y51	Z51	X52	Y52	Z52	X53	Y53	Z53	X54	Y54	Z54	X55	Y55	Z55	X56	Y56	Z56	X57	Y57	Z57	X58	Y58	Z58	X59	Y59	Z59	X60	Y60	Z60	X61	Y61	Z61	X62	Y62	Z62	X63	Y63	Z63	
186	0.925	107.14524	1723.5681	-931.78351	277.29254	1699.3309	-852.27216	232.96742	1726.1234	-1005.2117	2013.7131	28.11648	-2007.9233	1903.3762	23.696304	212.59892	158.96443	969.95374	-1062.5549	348.7323	977.03162	-958.67621	346.32684	973.01007	-916.42358	154.33017	974.56287	-813.53046	339.37857	985.68243	-933.53699	319.46326	1481.8691	-924.77502	164.11237	1431.9358	-925.41412	333.65973	1170.0103	-935.16315	299.79718	1467.9612	-1086.484	286.24152	1461.6437	-764.17853	223.09967	813.59052	-732.61078	190.39909	790.97205	-732.58197	237.80748	774.58319	-724.24121	192.27672	726.54919	-724.24188	261.58719	499.38257	-743.03448	236.72839	469.67087	-847.38409	320.20294	416.32907	-730.96051	296.44437	377.94547	-714.44098	343.35202	366.3761	-728.14484	309.40451	313.43536	-709.73273	251.99661	97.019127	-822.21661	282.05637	76.628036	-736.53723	331.24881	35.378555	-786.11664	111.38334	41.085957	-775.0379	155.21234	29.512991	-703.85266	128.89191	33.674107	-724.55408	209.8358	817.4173	-1143.4744	163.29503	781.79034	-1130.5442	210.45309	784.93457	-1149.0087	189.5305	721.87231	-1146.1942	256.75986	500.68234	-1124.7024	243.16051	482.85757	-1003.2944	307.2717	432.93069	-1137.0299	340.25641	382.70316	-1142.7706	290.12265	385.49905	-1154.4778	312.69989	323.65115	-1155.6133	287.92499	82.818092	-1132.561	248.60466	100.41376	-1050.1538	328.48645	33.15942	-1073.8807	172.58226	28.86714	-1181.9279	119.34158	46.039204	-1119.4032	130.86798	35.027584	-1159.9542	215.03011	1296.1566	-503.07709	272.58572	1395.0609	-489.96036	305.50546	1388.9077	-564.20605	324.40759	1381.7266	-623.03558	298.10529	1422.351	-635.67175	226.60652	1363.6866	-233.0993	168.10649	1341.1084	-248.01031	157.59735	1351.2831	-154.11151	249.17349	1394.0712	-1608.2701	198.88422	1398.3597	-1593.2196	183.70213	1397.7747	-1698.2826	234.78436	1298.5375	-1357.8284	287.13086	1431.5734	-1284.7563	315.97119	1425.5554	-1210.3988	285.56949	1401.5681	-1363.772	322.3822	1400.2036	-1267.2362
187	0.93	107.18398	1723.5909	-931.74658	277.34631	1699.3097	-852.24121	233.00246	1726.1356	-1005.1944	2013.7899	28.061357	-2007.84	1903.3086	23.764574	212.7226	158.96117	969.9599	-1062.5592	348.67163	977.0528	-958.70081	346.32257	973.00568	-916.4176	154.29778	974.5564	-813.53149	339.37097	985.68048	-933.53052	319.48911	1481.86	-924.75299	164.1192	1431.9431	-925.40295	333.67346	1170.0118	-935.14459	299.82047	1467.9711	-1086.4777	286.23169	1461.6407	-764.1723	223.09116	813.59882	-732.60101	190.39265	790.96429	-732.58569	237.81599	774.59619	-724.21271	192.2791	726.56177	-724.29108	261.58148	499.37936	-743.03308	236.71317	469.68332	-847.38501	320.18622	416.32919	-730.95923	296.42825	377.93787	-714.45038	343.35358	366.38013	-728.14563	309.42615	313.43182	-709.73114	251.8244	97.15995	-822.54309	282.05841	76.624329	-736.54144	331.13046	35.279461	-786.11816	111.38042	41.086464	-775.03223	155.21103	29.518835	-703.85388	128.88525	33.676991	-724.55853	209.83748	817.42102	-1143.4703	163.28969	781.7937	-1130.5459	210.44505	784.94952	-1149.0098	189.53766	721.8725	-1146.1873	256.76361	500.68396	-1124.7115	243.15242	482.85556	-1003.3005	307.28418	432.9328	-1137.0105	340.21783	382.72537	-1142.7461	290.13544	385.49295	-1154.4889	312.70782	323.64877	-1155.6016	287.92551	82.827873	-1132.5626	248.66846	100.38647	-1050.2017	328.48502	33.156563	-1073.8792	172.61446	28.826015	-1181.8724	119.33924	46.047859	-1119.4132	130.85353	35.083397	-1159.9907	215.04164	1296.1699	-503.1619	272.61621	1395.0863	-489.9447	305.50229	1388.8982	-564.21625	324.40732	1381.7139	-623.04254	298.11792	1422.3525	-635.6676	226.61438	1363.7499	-233.09258	168.12039	1341.1617	-247.98708	157.60509	1351.3296	-154.07199	249.14864	1394.1493	-1608.2672	198.86218	1398.441	-1593.2179	183.6835	1398.0399	-1698.2683	234.68393	1298.7029	-1357.8087	287.15048	1431.6129	-1284.751	315.98749	1425.5659	-1210.4082	285.48062	1401.4241	-1363.7186	322.38681	1400.2236	-1267.2484
188	0.935	107.22878	1723.6196	-931.70789	277.38663	1699.2885	-852.22272	233.04677	1726.1477	-1005.1799	2013.7709	28.037586	-2007.8668	1903.4288	23.6649	212.55191	158.96309	969.966	-1062.5626	348.64835	977.05768	-958.71063	346.30508	973.00323	-916.39886	154.29346	974.54877	-813.53876	339.34738	985.67963	-933.539	319.48499	1481.87	-924.76251	164.12279	1431.9539	-925.409	333.68628	1170.0046	-935.13837	299.85303	1467.9767	-1086.4622	286.23117	1461.6541	-764.16486	223.07698	813.58899	-732.6051	190.37291	790.97266	-732.56909	237.79483	774.59564	-724.23053	192.27068	726.5592	-724.28613	261.56668	499.38504	-743.03314	236.71527	469.67313	-847.3728	320.17953	416.31909	-730.97028	296.42038	377.93124	-714.45697	343.3497	366.38373	-728.13776	309.40994	313.42584	-709.72021	251.74254	97.013321	-822.37677	282.0509	76.622498	-736.5484	331.12955	35.277611	-786.11987	111.38026	41.091244	-775.03113	155.20879	29.511576	-703.85931	128.89171	33.676823	-724.56073	209.83427	817.42505	-1143.4679	163.28566	781.79755	-1130.5452	210.59192	784.66382	-1148.65	189.54172	721.87378	-1146.1921	256.76492	500.68759	-1124.7042	243.13379	482.85529	-1003.2996	307.29404	432.93225	-1137.0032	340.24207	382.72443	-1142.7354	290.13504	385.50745	-1154.4923	312.72705	323.65094	-1155.5933	287.92719	82.821243	-1132.5558	248.57831	100.40777	-1050.1536	328.4848	33.147709	-1073.8848	172.5638	28.870632	-1181.9299	119.3435	46.041416	-1119.415	130.8564	35.068813	-1159.9728	215.04779	1296.1536	-503.15677	272.63657	1395.1105	-489.93039	305.51758	1388.8932	-564.21533	324.3963	1381.6992	-623.04071	298.12585	1422.3506	-635.66705	226.63063	1363.8015	-233.08086	168.13208	1341.2112	-247.97827	157.69937	1351.3416	-154.05608	249.13113	1394.2512	-1608.2623	198.83492	1398.5258	-1593.2118	183.65865	1398.1531	-1698.2518	234.65294	1298.7698	-1357.8256	287.1524	1431.6357	-1284.7559	315.99783	1425.5778	-1210.4105	285.39938	1401.3906	-1363.692	322.39117	1400.244	-1267.2538
189	0.94	107.27741	1723.6279	-931.6723	277.4343	1699.2631	-852.20197	233.09215	1726.1577	-1005.1496	2013.7999	28.036501	-2007.8528	1903.3578	23.749237	212.66191	158.95459	969.97388	-1062.5547	348.68646	977.0332	-958.66882	346.30258	972.99792	-916.3952	154.28201	974.55499	-813.52905	339.33438	985.67572	-933.51727	319.50827	1481.8663	-924.7406	164.12398	1431.9595	-925.42358	333.70578	1169.9982	-935.12354	299.87311	1467.9769	-1086.4562	286.22519	1461.6573	-764.15698	223.06602	813.59033	-732.59851	190.35928	790.97351	-732.57361	237.71736	774.58746	-724.15546	192.24524	726.54913	-724.21545	261.56158	499.3775	-743.02991	236.70332	469.6857	-847.37915	320.16949	416.32816	-730.96332	296.41153	377.93359	-714.44995	343.3479	366.38586	-728.12793	309.42053	313.42007	-709.72369	251.72224	97.015251	-822.37665	282.05569	76.614876	-736.54669	331.24493	35.386429	-786.14813	111.38114	41.087875	-775.0415	155.20952	29.511665	-703.8634	128.88388	33.673588	-724.55859	209.82114	817.42706	-1143.4595	163.28595	781.79346	-1130.5398	210.58284	784.68011	-1148.6533	189.54277	721.86487	-1146.1963	256.76334	500.68332	-1124.6829	243.11647	482.86142	-1003.2934	307.28314	432.94315	-1136.9961	340.2518	382.73047	-1142.7275	290.14209	385.51971	-1154.4724	312.71265	323.6503	-1155.5718	287.92746	82.826385	-1132.5532	248.67336	100.37386	-1050.2048	328.49176	33.151962	-1073.8729	172.62122	28.81789	-1181.8569	119.34286	46.045994	-1119.4352	130.85631	35.081161	-1159.9847	215.06546	1296.1606	-503.20853	272.65503	1395.1324	-489.94077	305.53146	1388.8933	-564.20844	324.38928	1381.6846	-623.04767	298.13724	1422.3533	-635.66046	226.64171	1363.8584	-233.07828	168.14348	1341.2681	-247.9695	157.79849	1351.3132	-153.76624	249.09927	1394.342	-1608.2635	198.81346	1398.6136	-1593.2047	183.61925	1398.2614	-1698.2352	234.71295	1298.7202	-1357.8751	287.14413	1431.6534	-1284.7495	316.00681	1425.5835	-1210.405	285.40759	1401.4425	-1363.7085	322.39505	1400.2599	-1267.2573
